# xmcd CD database file
#
# Track frame offsets:
#	150
#	18425
#	29907
#	54875
#
# Disc length: 1068 seconds
#
# Revision: 2
# Processed by: cddbd v1.4b41PL1 Copyright (c) Steve Scherf et al.
# Submitted via: Feurio! 1.52 - http://www.feurio.com
#
DISCID=2c042a04
DTITLE=Norbert und die Feiglinge - Carola #2: Frauen
DYEAR=1900
DGENRE=
TTITLE0=Carola
TTITLE1=Andrea
TTITLE2=Mies
TTITLE3=Carola (Live)
EXTD=
EXTT0=
EXTT1=
EXTT2=
EXTT3=
PLAYORDER=
